# xmcd
#
# Track frame offsets:
#	150
#	8765
#	29573
#	45599
#	68166
#
# Disc length: 1151 seconds
#
# Revision: 0
# Processed by: cddbd v1.5.1PL0 Copyright (c) Steve Scherf et al.
# Submitted via: dBpowerAMP V4.0
#
DISCID=38047d05
DTITLE=Mory - 's Rosebett
DYEAR=1998
DGENRE=Hip-Hop
TTITLE0=Intro
TTITLE1=Bricks-Shit
TTITLE2=MC vom Future
TTITLE3=Chicks
TTITLE4=Headz
EXTD=
EXTT0=
EXTT1=
EXTT2=
EXTT3=
EXTT4=
PLAYORDER=
